<svg id="Layer_1" data-name="Layer 1" xmlns="http://www.w3.org/2000/svg" xmlns:xlink="http://www.w3.org/1999/xlink" viewBox="0 0 976.92036 193.48977"><defs><style>.cls-1{fill:url(#linear-gradient);}.cls-2{fill:url(#linear-gradient-2);}.cls-3{fill:url(#linear-gradient-3);}.cls-4{fill:url(#linear-gradient-4);}.cls-5{fill:url(#linear-gradient-5);}.cls-6{fill:url(#linear-gradient-6);}.cls-7{fill:url(#linear-gradient-7);}.cls-8{fill:url(#linear-gradient-8);}.cls-9{fill:url(#linear-gradient-9);}.cls-10{fill:url(#linear-gradient-10);}.cls-11{fill:url(#linear-gradient-11);}.cls-12{fill:url(#linear-gradient-12);}.cls-13{fill:url(#linear-gradient-13);}.cls-14{fill:url(#linear-gradient-14);}.cls-15{fill:none;}.cls-16{clip-path:url(#clip-path);}.cls-17{clip-path:url(#clip-path-2);}.cls-18{mask:url(#mask);}.cls-19{fill:url(#linear-gradient-15);}.cls-20{clip-path:url(#clip-path-3);}.cls-21{mask:url(#mask-2);}.cls-22{fill:url(#linear-gradient-16);}.cls-23{clip-path:url(#clip-path-4);}.cls-24{mask:url(#mask-3);}.cls-25{fill:url(#linear-gradient-17);}.cls-26{clip-path:url(#clip-path-5);}.cls-27{mask:url(#mask-4);}.cls-28{fill:url(#linear-gradient-18);}.cls-29{clip-path:url(#clip-path-6);}.cls-30{mask:url(#mask-5);}.cls-31{fill:url(#linear-gradient-19);}.cls-32{clip-path:url(#clip-path-7);}.cls-33{mask:url(#mask-6);}.cls-34{fill:url(#linear-gradient-20);}.cls-35{clip-path:url(#clip-path-8);}.cls-36{mask:url(#mask-7);}.cls-37{fill:url(#linear-gradient-21);}.cls-38{clip-path:url(#clip-path-9);}.cls-39{mask:url(#mask-8);}.cls-40{fill:url(#linear-gradient-22);}.cls-41{clip-path:url(#clip-path-10);}.cls-42{mask:url(#mask-9);}.cls-43{fill:url(#linear-gradient-23);}.cls-44{clip-path:url(#clip-path-11);}.cls-45{mask:url(#mask-10);}.cls-46{fill:url(#linear-gradient-24);}.cls-47{clip-path:url(#clip-path-12);}.cls-48{mask:url(#mask-11);}.cls-49{fill:url(#linear-gradient-25);}.cls-50{clip-path:url(#clip-path-13);}.cls-51{mask:url(#mask-12);}.cls-52{fill:url(#linear-gradient-26);}.cls-53{clip-path:url(#clip-path-14);}.cls-54{mask:url(#mask-13);}.cls-55{fill:url(#linear-gradient-27);}.cls-56{clip-path:url(#clip-path-15);}.cls-57{mask:url(#mask-14);}.cls-58{fill:url(#linear-gradient-28);}.cls-59{clip-path:url(#clip-path-16);}.cls-60{fill:url(#linear-gradient-29);}.cls-61{fill:#262525;}.cls-62{clip-path:url(#clip-path-18);}.cls-63{fill:url(#linear-gradient-30);}.cls-64{clip-path:url(#clip-path-19);}.cls-65{fill:url(#linear-gradient-31);}.cls-66{clip-path:url(#clip-path-20);}.cls-67{fill:url(#linear-gradient-32);}.cls-68{fill:#343333;}</style><linearGradient id="linear-gradient" x1="-0.00434" y1="191.99319" x2="0.99553" y2="191.99319" gradientTransform="matrix(-39.3544, 0.00002, 0.00002, 39.3544, 135.15265, -7486.20318)" gradientUnits="userSpaceOnUse"><stop offset="0" stop-color="#fff"/><stop offset="0.50538" stop-color="#fff"/><stop offset="0.54737" stop-color="#f6f6f6"/><stop offset="0.6159" stop-color="#dedede"/><stop offset="0.70248" stop-color="#b6b6b6"/><stop offset="0.80369" stop-color="#7f7f7f"/><stop offset="0.91583" stop-color="#393939"/><stop offset="1"/></linearGradient><linearGradient id="linear-gradient-2" x1="-0.00394" y1="192.04205" x2="0.99601" y2="192.04205" gradientTransform="translate(51.93374 -9078.80677) scale(47.92166)" gradientUnits="userSpaceOnUse"><stop offset="0" stop-color="#fff"/><stop offset="0.99462"/><stop offset="1"/></linearGradient><linearGradient id="linear-gradient-3" x1="-0.00659" y1="191.99484" x2="0.99355" y2="191.99484" gradientTransform="matrix(46.12073, -0.00026, -0.00026, -46.12073, 51.65822, 8976.73451)" gradientUnits="userSpaceOnUse"><stop offset="0" stop-color="#fff"/><stop offset="0.5" stop-color="#fff"/><stop offset="1"/></linearGradient><linearGradient id="linear-gradient-4" x1="-0.00157" y1="192.04219" x2="0.99833" y2="192.04219" gradientTransform="matrix(-60.82972, 0.00021, 0.00021, 60.82972, 109.3809, -11634.48372)" gradientUnits="userSpaceOnUse"><stop offset="0" stop-color="#fff"/><stop offset="1"/></linearGradient><linearGradient id="linear-gradient-5" x1="-0.00232" y1="192.05654" x2="0.99763" y2="192.05654" gradientTransform="matrix(59.08495, 0.00009, 0.00009, -59.08495, 71.61041, 11490.57888)" xlink:href="#linear-gradient-3"/><linearGradient id="linear-gradient-6" x1="-0.00915" y1="192.0215" x2="0.99072" y2="192.0215" gradientTransform="matrix(0.00009, 47.36973, 47.36973, -0.00009, -9031.60216, 53.26639)" xlink:href="#linear-gradient-4"/><linearGradient id="linear-gradient-7" x1="-0.00703" y1="192.02561" x2="0.99299" y2="192.02561" gradientTransform="matrix(0.00006, 51.68939, 51.68939, -0.00006, -9857.93777, 47.07305)" gradientUnits="userSpaceOnUse"><stop offset="0" stop-color="#fff"/><stop offset="0.00538" stop-color="#fff"/><stop offset="0.5" stop-color="#fff"/><stop offset="1"/></linearGradient><linearGradient id="linear-gradient-8" x1="-0.00082" y1="192.01712" x2="0.99913" y2="192.01712" gradientTransform="matrix(0.00016, 52.25926, 52.25926, -0.00016, -9939.03261, 34.805)" xlink:href="#linear-gradient-3"/><linearGradient id="linear-gradient-9" x1="0.00222" y1="192.04152" x2="1.00248" y2="192.04152" gradientTransform="matrix(72.79179, -0.00012, -0.00012, -72.79179, 66.23345, 14121.97307)" gradientUnits="userSpaceOnUse"><stop offset="0" stop-color="#fff"/><stop offset="0.16417" stop-color="#fff"/><stop offset="1"/></linearGradient><linearGradient id="linear-gradient-10" x1="-0.00426" y1="192.03061" x2="0.99593" y2="192.03061" gradientTransform="matrix(0.00042, 59.53489, -59.53489, 0.00042, 11478.17355, 72.91872)" xlink:href="#linear-gradient-3"/><linearGradient id="linear-gradient-11" x1="-0.00149" y1="192.03313" x2="0.99854" y2="192.03313" gradientTransform="matrix(60.8561, -0.00005, -0.00005, -60.8561, 21.46171, 11784.35849)" xlink:href="#linear-gradient-4"/><linearGradient id="linear-gradient-12" x1="0.00433" y1="192.01186" x2="1.00419" y2="192.01186" gradientTransform="matrix(-46.23788, -0.00003, 0.00003, -46.23788, 135.51349, 8944.45208)" gradientUnits="userSpaceOnUse"><stop offset="0" stop-color="#fff"/><stop offset="0.01613" stop-color="#fff"/><stop offset="1"/></linearGradient><linearGradient id="linear-gradient-13" x1="0.00162" y1="192.07595" x2="1.00145" y2="192.07595" gradientTransform="matrix(-0.00036, -74.09967, -74.09967, 0.00036, 14355.10568, 167.02396)" gradientUnits="userSpaceOnUse"><stop offset="0" stop-color="#fff"/><stop offset="0.43343" stop-color="#fff"/><stop offset="0.48108" stop-color="#f6f6f6"/><stop offset="0.55824" stop-color="#dedede"/><stop offset="0.65528" stop-color="#b7b7b7"/><stop offset="0.76836" stop-color="#818181"/><stop offset="0.89337" stop-color="#3d3d3d"/><stop offset="0.99462"/><stop offset="1"/></linearGradient><linearGradient id="linear-gradient-14" x1="-0.01175" y1="192.02333" x2="0.9883" y2="192.02333" gradientTransform="matrix(0.00004, -41.82598, -41.82598, -0.00004, 8150.55978, 134.7622)" xlink:href="#linear-gradient-3"/><clipPath id="clip-path" transform="translate(1.65088 0.9263)"><rect class="cls-15" width="973.32318" height="192.0332"/></clipPath><clipPath id="clip-path-2" transform="translate(1.65088 0.9263)"><path class="cls-15" d="M126.731,45.9224c.3501,6.9897-.2481,17.9668-5.8008,27.5879-7.6363,13.2329-17.687,22.225-24.3594,22.4287,7.3604,2.4057,21.8403-4.7188,34.7881-17.6656,14.7832-14.7822,16.0571-37.4702,16.0571-37.4702a69.957,69.957,0,0,0-20.685,5.1192"/></clipPath><mask id="mask" x="71.40478" y="18.0337" width="104.479" height="104.9336" maskUnits="userSpaceOnUse"><g transform="translate(1.65088 0.9263)"><rect class="cls-1" x="83.89289" y="32.34613" width="76.20102" height="74.45613" transform="translate(-4.31519 130.96718) rotate(-55.61892)"/></g></mask><linearGradient id="linear-gradient-15" x1="-0.00434" y1="191.99319" x2="0.99553" y2="191.99319" gradientTransform="matrix(-39.3544, 0.00002, 0.00002, 39.3544, 135.15265, -7486.20318)" gradientUnits="userSpaceOnUse"><stop offset="0" stop-color="#c51a7c"/><stop offset="0.50538" stop-color="#612c80"/><stop offset="1" stop-color="#612c80"/></linearGradient><clipPath id="clip-path-3" transform="translate(1.65088 0.9263)"><path class="cls-15" d="M72.0308,123.1045c-9.6197,5.5527-20.604,6.1494-27.5938,5.7998a69.78448,69.78448,0,0,0-5.1108,20.6855s22.686-1.2812,37.4677-16.0576C89.7422,120.585,96.8608,106.1103,94.46,98.7432c-.21,6.6728-9.2012,16.7236-22.4292,24.3613"/></clipPath><mask id="mask-2" x="15.85648" y="71.2451" width="107.7758" height="107.6958" maskUnits="userSpaceOnUse"><g transform="translate(1.65088 0.9263)"><rect class="cls-2" x="30.07163" y="85.77961" width="76.04373" height="76.77396" transform="translate(-70.51068 95.13298) rotate(-49.42868)"/></g></mask><linearGradient id="linear-gradient-16" x1="-0.00394" y1="192.04205" x2="0.99601" y2="192.04205" gradientTransform="translate(51.93374 -9078.80677) scale(47.92166)" gradientUnits="userSpaceOnUse"><stop offset="0" stop-color="#027f48"/><stop offset="0.99462" stop-color="#027f48"/><stop offset="1" stop-color="#027f48"/></linearGradient><clipPath id="clip-path-4" transform="translate(1.65088 0.9263)"><path class="cls-15" d="M44.0928,61.8403c6.9902-.351,17.9731.2461,27.5903,5.7989C84.9141,75.2764,93.9058,85.333,94.1172,92c2.3989-7.3599-4.7202-21.8408-17.667-34.7886C61.668,42.4292,38.981,41.1484,38.981,41.1484a69.82329,69.82329,0,0,0,5.1118,20.6919"/></clipPath><mask id="mask-3" x="15.25728" y="13.3653" width="108.2842" height="108.27" maskUnits="userSpaceOnUse"><g transform="translate(1.65088 0.9263)"><rect class="cls-7" x="29.52251" y="28.19784" width="76.45204" height="76.75251" transform="translate(-27.15737 70.42702) rotate(-46.82383)"/></g></mask><linearGradient id="linear-gradient-17" x1="-0.00703" y1="192.02561" x2="0.99299" y2="192.02561" gradientTransform="matrix(0.00006, 51.68939, 51.68939, -0.00006, -9857.93777, 47.07305)" gradientUnits="userSpaceOnUse"><stop offset="0" stop-color="#f06724"/><stop offset="0.00538" stop-color="#f06724"/><stop offset="0.5" stop-color="#ed2a26"/><stop offset="1" stop-color="#ed2a26"/></linearGradient><clipPath id="clip-path-5" transform="translate(1.65088 0.9263)"><path class="cls-15" d="M79.71,23.9614c6.3242,5.7188,15.2719,15.6919,18.7749,28.7739,4.8159,17.9781,3.9023,34.379-1.667,40.3038,8.4223-4.2671,14.7539-22.8799,14.7539-45.19,0-25.4697-18.4448-46.1118-18.4448-46.1118A85.05362,85.05362,0,0,0,79.71,23.9614"/></clipPath><mask id="mask-4" x="75.06298" y="0.4658" width="44.4575" height="95.6973" maskUnits="userSpaceOnUse"><g transform="translate(1.65088 0.9263)"><rect class="cls-8" x="76.59161" y="0.74503" width="38.09873" height="93.28624" transform="translate(-3.0475 6.7259) rotate(-3.96453)"/></g></mask><linearGradient id="linear-gradient-18" x1="-0.00082" y1="192.01712" x2="0.99913" y2="192.01712" gradientTransform="matrix(0.00016, 52.25926, 52.25926, -0.00016, -9939.03261, 34.805)" gradientUnits="userSpaceOnUse"><stop offset="0" stop-color="#ed2a26"/><stop offset="0.5" stop-color="#c51a7c"/><stop offset="1" stop-color="#c51a7c"/></linearGradient><clipPath id="clip-path-6" transform="translate(1.65088 0.9263)"><path class="cls-15" d="M99.0771,137.584c-3.5019,13.082-12.4462,23.0527-18.7753,28.7734a84.96783,84.96783,0,0,0,13.4223,22.22365s18.4458-20.64165,18.4458-46.11135c0-22.3144-6.3398-40.9228-14.7597-45.1963,5.5727,5.9307,6.4887,22.3321,1.6669,40.3106"/></clipPath><mask id="mask-5" x="74.11088" y="95.4624" width="47.5522" height="96.78226" maskUnits="userSpaceOnUse"><g transform="translate(1.65088 0.9263)"><rect class="cls-9" x="49.37853" y="123.1169" width="93.71514" height="39.62063" transform="translate(-54.45544 226.48341) rotate(-85.05444)"/></g></mask><linearGradient id="linear-gradient-19" x1="0.00319" y1="192.04152" x2="1.00345" y2="192.04152" gradientTransform="matrix(72.79179, -0.00012, -0.00012, -72.79179, 66.23345, 14121.97307)" gradientUnits="userSpaceOnUse"><stop offset="0" stop-color="#24499a"/><stop offset="0.16417" stop-color="#24499a"/><stop offset="1" stop-color="#24499a"/></linearGradient><clipPath id="clip-path-7" transform="translate(1.65088 0.9263)"><path class="cls-15" d="M0,95.4551a85.165,85.165,0,0,0,22.229,13.415c5.7148-6.3223,15.6919-15.2661,28.769-18.7749,17.9781-4.8159,34.3838-3.9009,40.3091,1.669-4.2719-8.417-22.8813-14.7559-45.1909-14.7559C20.647,77.0083,0,95.4551,0,95.4551"/></clipPath><mask id="mask-6" x="0" y="73.2036" width="94.60888" height="41.3243" maskUnits="userSpaceOnUse"><g transform="translate(1.65088 0.9263)"><rect class="cls-10" x="27.37511" y="46.5206" width="36.55664" height="92.83719" transform="translate(-49.52955 133.70842) rotate(-87.02553)"/></g></mask><linearGradient id="linear-gradient-20" x1="0.16144" y1="192.02088" x2="1.16163" y2="192.02088" gradientTransform="matrix(0.00042, 59.53489, -59.53489, 0.00042, 11477.59434, 62.96637)" gradientUnits="userSpaceOnUse"><stop offset="0" stop-color="#ffcd0a"/><stop offset="0.5" stop-color="#f06724"/><stop offset="1" stop-color="#f06724"/></linearGradient><clipPath id="clip-path-8" transform="translate(1.65088 0.9263)"><path class="cls-15" d="M0,95.4551s20.647,18.4463,46.1162,18.4463c22.3096,0,40.919-6.3379,45.1909-14.7539-5.9253,5.5683-22.331,6.4824-40.3091,1.6669C37.9209,97.3066,27.9438,88.3633,22.229,82.04A85.17933,85.17933,0,0,0,0,95.4551"/></clipPath><mask id="mask-7" x="0.10986" y="78.5498" width="94.38912" height="40.6939" maskUnits="userSpaceOnUse"><g transform="translate(1.65088 0.9263)"><rect class="cls-11" x="-0.71774" y="79.84783" width="92.74259" height="36.24523" transform="translate(-4.6908 2.32579) rotate(-2.77572)"/></g></mask><linearGradient id="linear-gradient-21" x1="-0.00149" y1="192.03313" x2="0.99854" y2="192.03313" gradientTransform="matrix(60.8561, -0.00005, -0.00005, -60.8561, 21.46171, 11784.35849)" gradientUnits="userSpaceOnUse"><stop offset="0" stop-color="#ffcd0a"/><stop offset="1" stop-color="#d99e28"/></linearGradient><clipPath id="clip-path-9" transform="translate(1.65088 0.9263)"><path class="cls-15" d="M109.9482,56.8613C97,69.814,89.8809,84.2891,92.2861,91.6562c.2041-6.6728,9.1958-16.7251,22.4239-24.3608,9.6269-5.5581,20.6049-6.1562,27.5952-5.8003a69.82866,69.82866,0,0,0,5.1108-20.6919s-22.688,1.2818-37.4678,16.0581"/></clipPath><mask id="mask-8" x="66.62008" y="13.5445" width="107.3584" height="107.2226" maskUnits="userSpaceOnUse"><g transform="translate(1.65088 0.9263)"><rect class="cls-12" x="80.28421" y="28.34103" width="76.72843" height="75.77718" transform="translate(-15.14611 89.95373) rotate(-39.22531)"/></g></mask><linearGradient id="linear-gradient-22" x1="0.00536" y1="192.01239" x2="1.00522" y2="192.01239" gradientTransform="matrix(-46.23788, -0.00003, 0.00003, -46.23788, 135.4937, 8944.47633)" gradientUnits="userSpaceOnUse"><stop offset="0" stop-color="#c51a7c"/><stop offset="0.01613" stop-color="#c51a7c"/><stop offset="1" stop-color="#c51a7c"/></linearGradient><clipPath id="clip-path-10" transform="translate(1.65088 0.9263)"><path class="cls-15" d="M96.915,94.1094c6.6709.2099,16.7242,9.1972,24.3609,22.4287,5.5581,9.6221,6.1499,20.6055,5.8003,27.5898a69.68671,69.68671,0,0,0,20.6899,5.1172s-1.2803-22.6855-16.0561-37.4687c-11.2759-11.2705-23.7061-18.1294-31.5948-18.1304a10.315,10.315,0,0,0-3.2002.4634"/></clipPath><mask id="mask-9" x="72.87448" y="71.0747" width="102.2339" height="102.5948" maskUnits="userSpaceOnUse"><g transform="translate(1.65088 0.9263)"><rect class="cls-13" x="85.7518" y="84.20341" width="73.17725" height="74.48473" transform="matrix(0.83126, -0.55588, 0.55588, 0.83126, -46.86601, 88.49981)"/></g></mask><linearGradient id="linear-gradient-23" x1="0.00162" y1="192.07595" x2="1.00145" y2="192.07595" gradientTransform="matrix(-0.00036, -74.09967, -74.09967, 0.00036, 14355.10568, 167.02396)" gradientUnits="userSpaceOnUse"><stop offset="0" stop-color="#612c80"/><stop offset="0.43343" stop-color="#612c80"/><stop offset="0.99462" stop-color="#612c80"/><stop offset="1" stop-color="#612c80"/></linearGradient><clipPath id="clip-path-11" transform="translate(1.65088 0.9263)"><path class="cls-15" d="M110.292,133.1875c14.7871,14.7773,37.4741,16.0576,37.4741,16.0576a69.89375,69.89375,0,0,0-5.1182-20.6846c-6.9887.3497-17.9667-.248-27.5878-5.8017-13.233-7.6406-22.2251-17.6934-22.4302-24.3652-2.4048,7.3662,4.7212,21.8466,17.6621,34.7939"/></clipPath><mask id="mask-10" x="66.96488" y="71.1314" width="107.3632" height="107.2285" maskUnits="userSpaceOnUse"><g transform="translate(1.65088 0.9263)"><rect class="cls-14" x="81.10517" y="85.45317" width="75.7809" height="76.73235" transform="translate(-52.17237 137.70123) rotate(-50.77467)"/></g></mask><linearGradient id="linear-gradient-24" x1="0.01408" y1="192.02064" x2="1.01414" y2="192.02064" gradientTransform="matrix(-0.00004, -41.82592, -41.82592, 0.00004, 8150.43497, 135.82773)" gradientUnits="userSpaceOnUse"><stop offset="0" stop-color="#612c80"/><stop offset="0.5" stop-color="#24499a"/><stop offset="1" stop-color="#24499a"/></linearGradient><clipPath id="clip-path-12" transform="translate(1.65088 0.9263)"><path class="cls-15" d="M55.3828,112.1211c-14.7778,14.7812-16.0566,37.4687-16.0566,37.4687a69.8367,69.8367,0,0,0,20.6899-5.1123c-.3559-6.9892.2417-17.9726,5.7949-27.5947,7.6358-13.2324,17.6939-22.2187,24.3658-22.4287a10.31633,10.31633,0,0,0-3.1949-.4609c-7.8911.0009-20.3271,6.8554-31.5991,18.1279"/></clipPath><mask id="mask-11" x="14.26268" y="70.4859" width="104.2793" height="104.4648" maskUnits="userSpaceOnUse"><g transform="translate(1.65088 0.9263)"><rect class="cls-3" x="27.25086" y="84.75981" width="75.00118" height="74.06388" transform="translate(-71.49448 100.27371) rotate(-53.02744)"/></g></mask><linearGradient id="linear-gradient-25" x1="-0.00624" y1="191.99553" x2="0.9939" y2="191.99553" gradientTransform="matrix(46.12073, -0.00026, -0.00026, -46.12073, 51.64203, 8976.76622)" gradientUnits="userSpaceOnUse"><stop offset="0" stop-color="#027f48"/><stop offset="0.0447" stop-color="#0f8345"/><stop offset="0.12676" stop-color="#308d3d"/><stop offset="0.237" stop-color="#669e2f"/><stop offset="0.36954" stop-color="#b0b51d"/><stop offset="0.5" stop-color="#ffcd0a"/><stop offset="1" stop-color="#ffcd0a"/></linearGradient><clipPath id="clip-path-13" transform="translate(1.65088 0.9263)"><path class="cls-15" d="M74.6792,47.8491c0,22.3101,6.3389,40.9229,14.7598,45.19-5.5738-5.9248-6.4888-22.3257-1.6719-40.3038,3.5068-13.082,12.4521-23.0551,18.7798-28.7739A85.04545,85.04545,0,0,0,93.127,1.7373S74.6792,22.3794,74.6792,47.8491"/></clipPath><mask id="mask-12" x="72.65328" y="1.3804" width="39.2212" height="93.8682" maskUnits="userSpaceOnUse"><g transform="translate(1.65088 0.9263)"><rect class="cls-4" x="44.35694" y="29.62745" width="92.51216" height="35.52149" transform="translate(39.61137 136.01772) rotate(-87.69019)"/></g></mask><linearGradient id="linear-gradient-26" x1="-0.00157" y1="192.04219" x2="0.99833" y2="192.04219" gradientTransform="matrix(-60.82972, 0.00021, 0.00021, 60.82972, 109.3809, -11634.48372)" gradientUnits="userSpaceOnUse"><stop offset="0" stop-color="#ed2a26"/><stop offset="1" stop-color="#ed2a26"/></linearGradient><clipPath id="clip-path-14" transform="translate(1.65088 0.9263)"><path class="cls-15" d="M75.2769,142.4697c0,25.4697,18.4472,46.11135,18.4472,46.11135a85.09692,85.09692,0,0,0,13.4151-22.22365c-6.3243-5.7207-15.271-15.6914-18.7754-28.7734-4.8169-17.9785-3.9009-34.3799,1.6684-40.3106-8.4233,4.2735-14.7553,22.8819-14.7553,45.1963"/></clipPath><mask id="mask-13" x="65.51658" y="94.2173" width="54.6846" height="99.27247" maskUnits="userSpaceOnUse"><g transform="translate(1.65088 0.9263)"><rect class="cls-5" x="43.91077" y="121.37168" width="94.59445" height="43.11114" transform="translate(-62.07089 215.40262) rotate(-82.76265)"/></g></mask><linearGradient id="linear-gradient-27" x1="-0.00232" y1="192.05654" x2="0.99763" y2="192.05654" gradientTransform="matrix(59.08495, 0.00009, 0.00009, -59.08495, 71.61041, 11490.57888)" gradientUnits="userSpaceOnUse"><stop offset="0" stop-color="#24499a"/><stop offset="0.5" stop-color="#027f48"/><stop offset="1" stop-color="#027f48"/></linearGradient><clipPath id="clip-path-15" transform="translate(1.65088 0.9263)"><path class="cls-15" d="M55.0391,78.6172C67.9849,91.564,82.46,98.6894,89.8271,96.2891c-6.6723-.209-16.7241-9.2007-24.3603-22.4288-5.5537-9.621-6.1519-20.604-5.8008-27.5942a69.92409,69.92409,0,0,0-20.685-5.1177s1.2749,22.688,16.0581,37.4688"/></clipPath><mask id="mask-14" x="11.86278" y="16.6524" width="108.3843" height="108.3852" maskUnits="userSpaceOnUse"><g transform="translate(1.65088 0.9263)"><rect class="cls-6" x="26.07297" y="31.60937" width="76.66215" height="76.61866" transform="translate(-30.59345 66.45723) rotate(-45.26418)"/></g></mask><linearGradient id="linear-gradient-28" x1="-0.00915" y1="192.0215" x2="0.99072" y2="192.0215" gradientTransform="matrix(0.00009, 47.36973, 47.36973, -0.00009, -9031.60216, 53.26639)" gradientUnits="userSpaceOnUse"><stop offset="0" stop-color="#f06724"/><stop offset="1" stop-color="#f06724"/></linearGradient><clipPath id="clip-path-16" transform="translate(1.65088 0.9263)"><path class="cls-15" d="M743.57228,58.5771l21.1259,53.129h-42.458Zm-2.1104-18.7319a3.10922,3.10922,0,0,0-2.6387.9468,6.73462,6.73462,0,0,0-.9873,1.7441c-.0947.2823-.3095.8252-.6484,1.6372-.3389.7837-.8809,2.043-1.6094,3.732-.7158,1.6909-1.7324,4.1259-3.0312,7.291q-1.9644,4.768-5.0176,12.0107-3.04392,7.26345-7.4795,17.8941-4.4238,10.63185-10.416,25.0493-5.9853,14.40375-13.8213,33.2724a1.55761,1.55761,0,0,0-.2168.5137,6.98287,6.98287,0,0,0-.1494,1.3809q0,2.313,3.124,2.3115h6.2354a4.0484,4.0484,0,0,0,3.9902-2.9053l8.2109-20.6826h52.7647l8.4248,20.8291a4.729,4.729,0,0,0,1.4863,2.002,3.88055,3.88055,0,0,0,2.4346.7568h6.2383a4.18733,4.18733,0,0,0,2.35252-.582,1.894,1.894,0,0,0,.90528-1.7295,3.23332,3.23332,0,0,0-.2422-1.0977,4.08715,4.08715,0,0,1-.2578-.7285L749.30468,42.5361A10.07406,10.07406,0,0,0,748.251,40.792a2.93767,2.93767,0,0,0-2.50392-.9468Z"/></clipPath><linearGradient id="linear-gradient-29" x1="0.00037" y1="192.00517" x2="1.00053" y2="192.00517" gradientTransform="matrix(-374.79047, 0.00092, 0.00092, 374.79046, 998.17939, -71867.97001)" gradientUnits="userSpaceOnUse"><stop offset="0" stop-color="#ffcd0a"/><stop offset="1" stop-color="#f06724"/></linearGradient><clipPath id="clip-path-18" transform="translate(1.65088 0.9263)"><path class="cls-15" d="M896.22068,132.4131a23.37626,23.37626,0,0,1-7.5742-5.6133,24.81215,24.81215,0,0,1-4.8428-8.3184,30.33212,30.33212,0,0,1-1.6894-10.2246,31.27254,31.27254,0,0,1,1.6494-10.1845,25.10531,25.10531,0,0,1,4.7617-8.3721,22.73035,22.73035,0,0,1,17.5693-7.8042,22.18108,22.18108,0,0,1,9.9678,2.1504,21.8789,21.8789,0,0,1,7.3057,5.7607,24.82681,24.82681,0,0,1,4.4609,8.4546,34.36192,34.36192,0,0,1,1.4893,10.2373,32.86987,32.86987,0,0,1-1.56938,10.294,24.32122,24.32122,0,0,1-4.54592,8.2373,21.14743,21.14743,0,0,1-7.2617,5.4521,24.91089,24.91089,0,0,1-19.7207-.0693m37.3301-63.3657a3.31735,3.31735,0,0,0-2.7725,1.0009,5.48106,5.48106,0,0,0-.9199,2.92l-.54,8.8457a60.48575,60.48575,0,0,0-3.8018-4.7608,22.77153,22.77153,0,0,0-4.8008-4.0849,25.44485,25.44485,0,0,0-6.34278-2.8399,28.9295,28.9295,0,0,0-8.27832-1.081,35.45311,35.45311,0,0,0-26.5654,11.4536,38.0671,38.0671,0,0,0-7.5742,12.459,43.332,43.332,0,0,0-2.6914,15.2968,42.4441,42.4441,0,0,0,2.7324,15.2705,38.41664,38.41664,0,0,0,7.6152,12.417,35.3642,35.3642,0,0,0,11.6455,8.3448,35.79766,35.79766,0,0,0,14.8379,3.0302,30.71541,30.71541,0,0,0,8.19632-.9873,23.07353,23.07353,0,0,0,11.14648-6.7763,46.11939,46.11939,0,0,0,3.8809-4.8428v8.6836A4.3143,4.3143,0,0,0,930.21,146.25a3.50351,3.50351,0,0,0,2.88078,1.0693H938.001a4.56049,4.56049,0,0,0,2.89548-.9189,2.97836,2.97836,0,0,0,1.18852-2.4639V72.9683a3.54335,3.54335,0,0,0-1.22952-2.8799,4.31782,4.31782,0,0,0-2.85448-1.041Z"/></clipPath><linearGradient id="linear-gradient-30" x1="-0.00089" y1="192.01822" x2="0.99976" y2="192.01822" gradientTransform="matrix(-374.79365, 0.00205, 0.00205, 374.79364, 1025.16733, -71859.02429)" xlink:href="#linear-gradient-29"/><clipPath id="clip-path-19" transform="translate(1.65088 0.9263)"><path class="cls-15" d="M806.207,70.6562a23.106,23.106,0,0,0-7.72162,4.4361,19.52686,19.52686,0,0,0-5.0049,6.8037,20.58253,20.58253,0,0,0-1.7979,8.6304,19.52577,19.52577,0,0,0,1.5938,8.0341,21.02983,21.02983,0,0,0,4.5595,6.4493,27.66184,27.66184,0,0,0,7.0743,4.9384,48.47017,48.47017,0,0,0,9.1699,3.4356c2.081.5537,4.0703,1.1894,5.9512,1.8799a24.99677,24.99677,0,0,1,5.0175,2.4062,11.91784,11.91784,0,0,1,3.4756,3.2061,7.33619,7.33619,0,0,1,1.2998,4.3545,7.14114,7.14114,0,0,1-1.2998,4.1679,11.03026,11.03026,0,0,1-3.3662,3.1368,17.65171,17.65171,0,0,1-4.6143,1.9472,19.56026,19.56026,0,0,1-5.08388.6904,17.3039,17.3039,0,0,1-3.55772-.4209,19.22107,19.22107,0,0,1-4.0986-1.3789,15.05816,15.05816,0,0,1-3.8154-2.5537,9.57662,9.57662,0,0,1-2.5967-3.9775,5.4058,5.4058,0,0,0-1.2285-2.0293,1.98868,1.98868,0,0,0-2.28708-.3516l-7.72272,3.1368a2.09909,2.09909,0,0,0-.9599,1.3408,3.468,3.468,0,0,0,.1875,1.6494,18.99708,18.99708,0,0,0,3.82812,7.2637,24.87744,24.87744,0,0,0,6.22258,5.2334,29.61658,29.61658,0,0,0,7.7217,3.165,33.18541,33.18541,0,0,0,8.30672,1.0693,36.46265,36.46265,0,0,0,10.84758-1.5293,25.83566,25.83566,0,0,0,8.6016-4.3955,20.10049,20.10049,0,0,0,5.6553-6.9521,20.47715,20.47715,0,0,0,2.0273-9.2119,19.75761,19.75761,0,0,0-6.7344-15.1739q-6.71625-6.1494-18.7207-8.9004a.65788.65788,0,0,1-.3105-.081.63311.63311,0,0,0-.2989-.082,35.9659,35.9659,0,0,1-4.4755-1.3653,18.162,18.162,0,0,1-4.0176-2.0693,10.7127,10.7127,0,0,1-2.8965-2.9356,7.06071,7.06071,0,0,1-1.1494-4.0166,7.55557,7.55557,0,0,1,.9219-3.5981,10.1571,10.1571,0,0,1,2.5146-3.0981,12.55134,12.55134,0,0,1,3.8691-2.1368,15.03015,15.03015,0,0,1,5.004-.7973,11.9613,11.9613,0,0,1,7.1845,2.2182,24.06489,24.06489,0,0,1,5.2725,5.1929c.3115.46.5547.853.7578,1.1909a5.30711,5.30711,0,0,0,.6221.8389,1.86962,1.86962,0,0,0,.7148.5,3.551,3.551,0,0,0,1.11042.1494,3.10973,3.10973,0,0,0,1.29778-.3784c.5156-.2588,1.043-.5689,1.6094-.9199.5566-.3658,1.123-.7578,1.6787-1.19a17.61982,17.61982,0,0,1,1.6104-1.1098,8.90624,8.90624,0,0,0,1.1484-.8789,1.35638,1.35638,0,0,0,.4599-1.0284,3.16636,3.16636,0,0,0-.08-.7309,4.55012,4.55012,0,0,0-.46-1.0269,40.014,40.014,0,0,0-4.166-6.1548,25.28212,25.28212,0,0,0-5.0039-4.6264,22.06715,22.06715,0,0,0-6.1953-2.9478,26.94031,26.94031,0,0,0-7.6446-1.0268A29.72888,29.72888,0,0,0,806.207,70.6562"/></clipPath><linearGradient id="linear-gradient-31" x1="0.00148" y1="192.03164" x2="1.00137" y2="192.03164" gradientTransform="matrix(-374.76773, 0.0017, 0.00171, 374.76773, 1014.51254, -71859.07984)" xlink:href="#linear-gradient-29"/><clipPath id="clip-path-20" transform="translate(1.65088 0.9263)"><path class="cls-15" d="M851.248,69.061a3.23653,3.23653,0,0,0-3.57122,3.501v71.2671q0,3.4893,3.57122,3.4902h6.61528a3.74011,3.74011,0,0,0,2.6221-.8662,3.41282,3.41282,0,0,0,.9628-2.624V72.562a3.37893,3.37893,0,0,0-1.0019-2.542,3.57153,3.57153,0,0,0-2.583-.959Zm.62408-21.06a6.99437,6.99437,0,0,0-2.166,1.4741,6.74957,6.74957,0,0,0-1.4883,2.2051,6.61876,6.61876,0,0,0-.5547,2.6909,6.41851,6.41851,0,0,0,.5547,2.6499,6.72777,6.72777,0,0,0,1.4883,2.166,6.86039,6.86039,0,0,0,2.166,1.4873,6.23238,6.23238,0,0,0,2.6474.5527,6.6696,6.6696,0,0,0,2.7618-.5527,6.84961,6.84961,0,0,0,2.1904-1.4873,6.67209,6.67209,0,0,0,1.4619-2.166,6.95314,6.95314,0,0,0,.5146-2.6499,7.17259,7.17259,0,0,0-.5146-2.6909,6.69733,6.69733,0,0,0-1.4619-2.2051,6.98235,6.98235,0,0,0-2.1904-1.4741,6.88856,6.88856,0,0,0-2.7618-.5557,6.43975,6.43975,0,0,0-2.6474.5557"/></clipPath><linearGradient id="linear-gradient-32" x1="-0.00097" y1="192.03182" x2="1.00029" y2="192.03182" gradientTransform="matrix(-374.78953, 0.00536, 0.00536, 374.78952, 1012.5755, -71874.13474)" xlink:href="#linear-gradient-29"/></defs><title>Logo CitynowAsia</title><g class="cls-16"><g class="cls-17"><g class="cls-18"><rect class="cls-19" x="83.89289" y="32.34613" width="76.20102" height="74.45613" transform="translate(-2.66431 131.89348) rotate(-55.61892)"/></g></g><g class="cls-20"><g class="cls-21"><rect class="cls-22" x="30.07163" y="85.77961" width="76.04373" height="76.77396" transform="translate(-68.8598 96.05928) rotate(-49.42868)"/></g></g><g class="cls-23"><g class="cls-24"><rect class="cls-25" x="29.52251" y="28.19784" width="76.45204" height="76.75251" transform="translate(-25.50649 71.35332) rotate(-46.82383)"/></g></g><g class="cls-26"><g class="cls-27"><rect class="cls-28" x="76.59161" y="0.74503" width="38.09873" height="93.28624" transform="translate(-1.39662 7.6522) rotate(-3.96453)"/></g></g><g class="cls-29"><g class="cls-30"><rect class="cls-31" x="49.37853" y="123.1169" width="93.71514" height="39.62063" transform="translate(-52.80456 227.40971) rotate(-85.05444)"/></g></g><g class="cls-32"><g class="cls-33"><rect class="cls-34" x="27.37511" y="46.5206" width="36.55664" height="92.83719" transform="translate(-47.87867 134.63472) rotate(-87.02553)"/></g></g><g class="cls-35"><g class="cls-36"><rect class="cls-37" x="-0.71774" y="79.84783" width="92.74259" height="36.24523" transform="translate(-3.03992 3.25209) rotate(-2.77572)"/></g></g><g class="cls-38"><g class="cls-39"><rect class="cls-40" x="80.28421" y="28.34103" width="76.72843" height="75.77718" transform="translate(-13.49523 90.88003) rotate(-39.22531)"/></g></g><g class="cls-41"><g class="cls-42"><rect class="cls-43" x="85.7518" y="84.20341" width="73.17725" height="74.48473" transform="matrix(0.83126, -0.55588, 0.55588, 0.83126, -45.21513, 89.42611)"/></g></g><g class="cls-44"><g class="cls-45"><rect class="cls-46" x="81.10517" y="85.45317" width="75.7809" height="76.73235" transform="translate(-50.52149 138.62753) rotate(-50.77467)"/></g></g><g class="cls-47"><g class="cls-48"><rect class="cls-49" x="27.25086" y="84.75981" width="75.00118" height="74.06388" transform="translate(-69.8436 101.20001) rotate(-53.02744)"/></g></g><g class="cls-50"><g class="cls-51"><rect class="cls-52" x="44.35694" y="29.62745" width="92.51216" height="35.52149" transform="translate(41.26225 136.94402) rotate(-87.69019)"/></g></g><g class="cls-53"><g class="cls-54"><rect class="cls-55" x="43.91077" y="121.37168" width="94.59445" height="43.11114" transform="translate(-60.42001 216.32892) rotate(-82.76265)"/></g></g><g class="cls-56"><g class="cls-57"><rect class="cls-58" x="26.07297" y="31.60937" width="76.66215" height="76.61866" transform="translate(-28.94257 67.38353) rotate(-45.26418)"/></g></g><g class="cls-59"><rect class="cls-60" x="675.34979" y="23.29265" width="136.35899" height="140.88904" transform="translate(49.39883 373.07107) rotate(-28.99356)"/></g><g class="cls-16"><path class="cls-61" d="M246.57229,50.4355a9.36242,9.36242,0,0,1,1.313,1.1363,1.90776,1.90776,0,0,1,.5273,1.3398,2.83991,2.83991,0,0,1-.3242,1.229,7.16637,7.16637,0,0,1-.6621,1.1641l-2.9629,4.666a3.08322,3.08322,0,0,1-2.4077,1.623,4.988,4.988,0,0,1-1.1231-.3242,6.29734,6.29734,0,0,1-1.4072-.812,44.73061,44.73061,0,0,0-11.6851-5.9907,39.6485,39.6485,0,0,0-12.958-2.1909A41.70018,41.70018,0,0,0,184.5986,64.7998a42.23867,42.23867,0,0,0-8.6821,13.3091,41.60289,41.60289,0,0,0-3.0991,15.8789,39.045,39.045,0,0,0,3.4502,16.3403,42.66042,42.66042,0,0,0,9.251,13.1719,43.15668,43.15668,0,0,0,13.33589,8.7373,40.08042,40.08042,0,0,0,15.7441,3.1787,44.31264,44.31264,0,0,0,5.4117-.3115,33.23152,33.23152,0,0,0,5.3281-1.0957,45.0645,45.0645,0,0,0,5.5449-2.041,53.28691,53.28691,0,0,0,5.9521-3.1778,8.09574,8.09574,0,0,0,1.379-.8125c.4873-.3515.9609-.7041,1.4072-1.0556a11.119,11.119,0,0,1,1.311-.8916,2.33559,2.33559,0,0,1,1.0698-.3516c.878,0,1.6753.5938,2.3931,1.7705l3.2461,5.3565a4.18482,4.18482,0,0,1,.4868,1.9746,2.70958,2.70958,0,0,1-1.623,2.4072,56.14811,56.14811,0,0,1-14.7559,7.6562,55.1433,55.1433,0,0,1-31.6772.879,53.47527,53.47527,0,0,1-12.86189-5.4239,54.51374,54.51374,0,0,1-10.9028-8.4394,53.88053,53.88053,0,0,1-8.3579-65.2617,54.63693,54.63693,0,0,1,8.439-10.9278,51.956,51.956,0,0,1,10.9028-8.4404,55.49,55.49,0,0,1,12.875-5.438,53.767,53.767,0,0,1,31.3389.812,56.69015,56.69015,0,0,1,15.0669,7.832" transform="translate(1.65088 0.9263)"/><path class="cls-61" d="M256.10889,54.6689a6.65522,6.65522,0,0,1,.5527-2.6772,7.01655,7.01655,0,0,1,3.6533-3.6802,6.494,6.494,0,0,1,2.6509-.5537,6.90716,6.90716,0,0,1,2.7588.5537,6.82125,6.82125,0,0,1,2.19141,1.4883,6.57193,6.57193,0,0,1,1.44779,2.1919,6.88294,6.88294,0,0,1-1.44779,7.519,7.03382,7.03382,0,0,1-2.19141,1.4751,6.67042,6.67042,0,0,1-2.7588.5537,6.26891,6.26891,0,0,1-2.6509-.5537,7.13734,7.13734,0,0,1-2.1772-1.4751,7.25558,7.25558,0,0,1-1.4761-2.163,6.62155,6.62155,0,0,1-.5527-2.6788m13.7817,89.4717a3.38915,3.38915,0,0,1-.9599,2.6231,3.74375,3.74375,0,0,1-2.6241.8652h-6.6128q-3.57118,0-3.5722-3.4883V72.8745a3.2419,3.2419,0,0,1,3.5722-3.5049h6.6128a3.59585,3.59585,0,0,1,2.584.9619,3.37481,3.37481,0,0,1,1,2.543Z" transform="translate(1.65088 0.9263)"/><path class="cls-61" d="M312.76659,147.4814c-.418.0538-.8379.0801-1.2437.1075-.41889.04-.8393.04-1.2573.04a47.18145,47.18145,0,0,1-7.26359-.54,14.03354,14.03354,0,0,1-6.209-2.502,13.28218,13.28218,0,0,1-4.29931-5.6543,25.78435,25.78435,0,0,1-1.59769-9.9551V82.0444h-9.45411a5.00351,5.00351,0,0,1-2.8403-.6767c-.648-.4322-.97459-1.3252-.97459-2.6914v-5.856c0-1.353.32659-2.2329.97459-2.624a5.72554,5.72554,0,0,1,2.8403-.5689H290.896V47.5137a2.7435,2.7435,0,0,1,.63569-1.9873,4.44225,4.44225,0,0,1,2.0152-1.0557l7.8857-1.1631a2.414,2.414,0,0,1,2.5029,1.2847,7.17546,7.17546,0,0,1,.5552,2.853V69.6274H315.959a3.91417,3.91417,0,0,1,2.665.772,3.73665,3.73665,0,0,1,.85159,2.813v5.0723c0,2.5029-1.16259,3.7597-3.51659,3.7597H304.49069v41.9292a35.78366,35.78366,0,0,0,.3911,6.1407,6.30562,6.30562,0,0,0,1.3648,3.1914,4.12148,4.12148,0,0,0,2.5303,1.2851,33.89875,33.89875,0,0,0,3.91011.3115,4.15039,4.15039,0,0,1,2.89409,1.0137,3.76849,3.76849,0,0,1,1.0957,2.8945v4.9239a3.33194,3.33194,0,0,1-1.0689,2.6914,4.98207,4.98207,0,0,1-2.8413,1.0556" transform="translate(1.65088 0.9263)"/><path class="cls-61" d="M402.45609,76.7969q-10.6092,25.31835-20.9107,50.7607-10.28908,25.4415-20.9111,50.6006a4.35542,4.35542,0,0,1-4.3281,2.8672H349.772c-2.51371,0-3.75881-.919-3.75881-2.7871a5.4554,5.4554,0,0,1,.3252-1.7051l11.768-28.6729-30.0673-72.7001a8.09149,8.09149,0,0,1-.6099-2.002,9.8694,9.8694,0,0,1-.1221-1.1904c0-1.7437,1.1763-2.6089,3.503-2.6089h6.9521a4.51017,4.51017,0,0,1,2.6509.7832,4.21638,4.21638,0,0,1,1.5972,2.165q2.6967,7.098,5.6259,14.5801c1.9742,4.9766,3.9361,9.9678,5.937,14.9858q2.96415,7.50585,5.9512,14.9454,2.9847,7.4253,5.9238,14.541l23.3599-59.3106a4.38155,4.38155,0,0,1,1.7192-2.0688,5.24471,5.24471,0,0,1,2.69-.6211h6.709a4.05214,4.05214,0,0,1,2.936.8911,3.20741,3.20741,0,0,1,.9058,2.3809,6.08718,6.08718,0,0,1-.16409,1.1772,19.50861,19.50861,0,0,1-1.14791,2.9888" transform="translate(1.65088 0.9263)"/><path class="cls-61" d="M425.125,81.4893a43.06348,43.06348,0,0,1,4.19339-4.3819,31.67235,31.67235,0,0,1,11.4287-6.6953,21.80852,21.80852,0,0,1,6.7612-1.0537,29.81694,29.81694,0,0,1,22.1968,9.5078,32.35592,32.35592,0,0,1,6.4262,10.374,34.92878,34.92878,0,0,1,2.2989,12.7696v41.6289a3.855,3.855,0,0,1-1.09619,2.9765,3.69344,3.69344,0,0,1-2.65191,1.0137h-6.4238a3.2455,3.2455,0,0,1-2.7329-.9326,4.80168,4.80168,0,0,1-.7051-2.8936V102.0098a18.57606,18.57606,0,0,0-1.52729-7.4405,19.43742,19.43742,0,0,0-4.19091-6.1411,20.182,20.182,0,0,0-6.14309-4.1518,18.32921,18.32921,0,0,0-7.397-1.5279,19.44781,19.44781,0,0,0-7.332,1.4468,22.04685,22.04685,0,0,0-6.36961,3.9492,21.3816,21.3816,0,0,0-4.6543,5.9107,17.36506,17.36506,0,0,0-2.08109,7.2358v42.9033a3.35744,3.35744,0,0,1-.93261,2.583,3.57769,3.57769,0,0,1-2.50439.8516h-6.42381q-3.6732,0-3.6778-3.4346V72.8061a3.24908,3.24908,0,0,1,1.0127-2.5029,3.61,3.61,0,0,1,2.5171-.9448h6.4512a3.44467,3.44467,0,0,1,2.51461.9448,3.98136,3.98136,0,0,1,1.083,2.5029Z" transform="translate(1.65088 0.9263)"/><path class="cls-61" d="M486.05659,108.541a38.3033,38.3033,0,0,1,3.0586-15.2427,39.14681,39.14681,0,0,1,8.3457-12.4712,40.02613,40.02613,0,0,1,12.375-8.3862,39.22231,39.22231,0,0,1,30.4854,0,39.09133,39.09133,0,0,1,20.8574,20.8574,39.29351,39.29351,0,0,1,0,30.5142,39.6406,39.6406,0,0,1-8.38569,12.4297,39.09065,39.09065,0,0,1-12.47171,8.3447,39.70968,39.70968,0,0,1-30.4854,0,38.94652,38.94652,0,0,1-20.7207-20.7744,38.1608,38.1608,0,0,1-3.0586-15.2715m12.3487,0a25.82047,25.82047,0,0,0,2.09671,10.3604,26.72877,26.72877,0,0,0,5.76259,8.5351,27.39921,27.39921,0,0,0,8.4932,5.7901,25.14478,25.14478,0,0,0,10.3193,2.1494,25.48954,25.48954,0,0,0,10.376-2.1494,28.06087,28.06087,0,0,0,8.5733-5.7901,27.09308,27.09308,0,0,0,5.831-8.5351,26.22143,26.22143,0,0,0,0-20.7354,27.71255,27.71255,0,0,0-14.4043-14.4038,25.67918,25.67918,0,0,0-10.376-2.123,25.33164,25.33164,0,0,0-10.3193,2.123A27.4933,27.4933,0,0,0,500.502,98.166a25.8906,25.8906,0,0,0-2.09671,10.375" transform="translate(1.65088 0.9263)"/><path class="cls-61" d="M586.66019,72.5488q2.45505,6.45345,5.248,13.499,2.80079,7.03935,5.57319,14.0938,2.79945,7.0401,5.4639,13.6875,2.65725,6.65475,4.9776,12.2275,3.0234-7.7094,6.6816-16.7578,3.6723-9.02775,7.47852-18.6797l7.10158-18.1504a5.684,5.684,0,0,1,1.583-2.2329,4.06221,4.06221,0,0,1,2.706-.8769H640.249a4.32138,4.32138,0,0,1,2.62308.7148,2.46175,2.46175,0,0,1,.95992,2.0703,4.96255,4.96255,0,0,1-.16212,1.083,5.57153,5.57153,0,0,1-.2422.8379q-1.5834,3.8943-3.21968,7.8042-1.64358,3.895-3.30082,7.8047,2.2119,5.8023,4.5313,11.6582c1.542,3.9092,3.0566,7.628,4.5449,11.1856l5.5732,13.6201q2.313-5.57955,4.9356-12.2539,2.61765-6.69585,5.4101-13.7422,2.7804-7.0584,5.587-14.1348,2.7597-7.07955,5.3281-13.5381a5.00135,5.00135,0,0,1,1.624-2.1909,4.30524,4.30524,0,0,1,2.7461-.9189h6.6953a4.6706,4.6706,0,0,1,2.7451.7148,2.42768,2.42768,0,0,1,1.003,2.0703,4.05917,4.05917,0,0,1-.2051,1.083,7.90274,7.90274,0,0,1-.2842.8379l-29.1338,70.4673c0-.0537-.0683.0821-.2031.3926a4.288,4.288,0,0,1-.6768,1.0684,5.393,5.393,0,0,1-1.2715,1.1357,3.63518,3.63518,0,0,1-1.9873.5h-4.6259a3.36951,3.36951,0,0,1-2.86818-1.1475,9.80435,9.80435,0,0,1-1.18952-1.8671l-15.4462-37.3438-15.3789,37.2617c-.0538.1084-.1221.2979-.2295.5957a4.79161,4.79161,0,0,1-.5547,1,3.53307,3.53307,0,0,1-1.0811.9473,3.4274,3.4274,0,0,1-1.78708.4062l-.24222.1475h-4.8554a4.45811,4.45811,0,0,1-1.7452-.3086,3.94885,3.94885,0,0,1-1.2041-.7988,4.62413,4.62413,0,0,1-.7578-.9873,6.53037,6.53037,0,0,1-.4306-.9199L572.40429,74.0649a2.41267,2.41267,0,0,1-.1621-.5542,7.15691,7.15691,0,0,1-.1484-1.5156c0-1.7593,1.1357-2.6362,3.4208-2.6362h6.6827a4.11364,4.11364,0,0,1,2.705.9189,6.49025,6.49025,0,0,1,1.7579,2.271" transform="translate(1.65088 0.9263)"/></g><g class="cls-62"><rect class="cls-63" x="854.8574" y="56.3034" width="101.63377" height="103.75965" transform="translate(62.71654 453.4724) rotate(-28.99338)"/></g><g class="cls-64"><rect class="cls-65" x="773.49463" y="60.99112" width="84.71575" height="94.3842" transform="translate(51.46003 409.93587) rotate(-28.99345)"/></g><g class="cls-66"><rect class="cls-67" x="824.32185" y="50.36292" width="60.46712" height="94.0386" transform="translate(61.54254 427.334) rotate(-28.99288)"/></g><g class="cls-16"><path class="cls-61" d="M962.96878,78.1484a5.244,5.244,0,0,1-5.126,3.9771,5.178,5.178,0,0,1-3.76078-1.5142,5.25942,5.25942,0,0,1-.01072-7.4809,5.16759,5.16759,0,0,1,3.7578-1.501,4.99885,4.99885,0,0,1,4.4375,2.3813,4.47239,4.47239,0,0,1,.7022,1.6499H960.251a2.44112,2.44112,0,0,0-2.44832-1.7583,2.49836,2.49836,0,0,0-1.9619.8921,3.0475,3.0475,0,0,0-.7431,2.0562,3.11185,3.11185,0,0,0,.7431,2.083,2.47136,2.47136,0,0,0,1.9883.9199,2.54479,2.54479,0,0,0,2.42192-1.7051Z" transform="translate(1.65088 0.9263)"/><path class="cls-61" d="M957.73438,69.0469a7.83155,7.83155,0,1,0,7.831,7.83,7.84467,7.84467,0,0,0-7.831-7.83m0,14.6748a6.844,6.844,0,1,1,6.8457-6.8448,6.84964,6.84964,0,0,1-6.8457,6.8448" transform="translate(1.65088 0.9263)"/><path class="cls-68" d="M423.001,178.5635a7.14113,7.14113,0,0,0,2.69039-.541,8.22426,8.22426,0,0,0,2.4238-1.4473,3.45357,3.45357,0,0,1,.3921-.2305,1.007,1.007,0,0,1,.417-.1084.546.546,0,0,1,.4736.2862l1.2325,1.7959a1.54259,1.54259,0,0,0,.1059.2177.37358.37358,0,0,1,.05471.1621.77169.77169,0,0,1-.24271.583,2.26324,2.26324,0,0,1-.4721.3653,15.85,15.85,0,0,1-3.26219,1.7715,9.99223,9.99223,0,0,1-3.813.72848,11.30154,11.30154,0,0,1-4.46491-.89058,11.62967,11.62967,0,0,1-3.625-2.4502,11.38138,11.38138,0,0,1-2.43309-3.6241,11.54574,11.54574,0,0,1,0-8.9004,11.45714,11.45714,0,0,1,2.43309-3.6386,11.85865,11.85865,0,0,1,3.625-2.4473,11.02707,11.02707,0,0,1,4.46491-.9062,10.47708,10.47708,0,0,1,3.436.5546,13.377,13.377,0,0,1,3.43509,1.7579H429.832a5.788,5.788,0,0,1,.53909.4599.63672.63672,0,0,1,.19191.4336,1.12067,1.12067,0,0,1-.041.2695.60374.60374,0,0,1-.09671.2305l-1.21629,1.9072.01319-.0273a.7009.7009,0,0,1-.5669.2705.921.921,0,0,1-.3111-.0957,3.60044,3.60044,0,0,1-.40619-.2559,11.06829,11.06829,0,0,0-2.28761-1.3789,6.62917,6.62917,0,0,0-2.64939-.541,7.34687,7.34687,0,0,0-3.02981.6358,7.85058,7.85058,0,0,0-2.4878,1.6894,8.04351,8.04351,0,0,0-1.69239,2.502,7.71719,7.71719,0,0,0,0,6.0595,7.87964,7.87964,0,0,0,1.69239,2.4756,7.652,7.652,0,0,0,2.4878,1.6905,7.37963,7.37963,0,0,0,3.02981.6367" transform="translate(1.65088 0.9263)"/><path class="cls-68" d="M440.69239,162.2666a5.63791,5.63791,0,0,1,1.7324-1.9902,6.402,6.402,0,0,1,1.4316-.7032,5.56337,5.56337,0,0,1,1.854-.2851,5.24779,5.24779,0,0,1,1.8941.3525,6.0469,6.0469,0,0,1,1.4731.7852c.3912.2959.5962.5537.5962.7695a.55261.55261,0,0,1-.04.2041.26507.26507,0,0,1-.082.1475l-1.1094,2.0556c-.107.2041-.2027.3252-.312.3662a.73851.73851,0,0,1-.3247.0684,1.62836,1.62836,0,0,1-.2842-.0947.7689.7689,0,0,1-.1621-.0957,5.75491,5.75491,0,0,0-1.0259-.4864,4.38582,4.38582,0,0,0-1.1499-.2431,3.36284,3.36284,0,0,0-1.8408.542,5.01345,5.01345,0,0,0-1.4214,1.3662,6.20492,6.20492,0,0,0-.9048,1.8779,6.52322,6.52322,0,0,0-.3242,2.0576v12.2119a.87609.87609,0,0,1-.9859.97368h-1.8549a.88565.88565,0,0,1-1.0152-.97368V160.2764a.945.945,0,0,1,.2842-.7168,1.04694,1.04694,0,0,1,.7051-.2715h1.6089a.97559.97559,0,0,1,.7441.2851.99892.99892,0,0,1,.2847.7032Z" transform="translate(1.65088 0.9263)"/><path class="cls-68" d="M463.69819,178.4004a9.85768,9.85768,0,0,0,1.2339-.082,8.79544,8.79544,0,0,0,1.29691-.2959,9.08744,9.08744,0,0,0,1.20409-.4883,3.717,3.717,0,0,0,1-.7569,3.63866,3.63866,0,0,1,.60891-.3642,1.543,1.543,0,0,1,.623-.1768,1.10489,1.10489,0,0,1,.46.1084.527.527,0,0,1,.30909.2578l.92091,1.5293a1.14188,1.14188,0,0,1,.188.5118.97955.97955,0,0,1-.22811.6386,4.15758,4.15758,0,0,1-.5151.458,9.42108,9.42108,0,0,1-1.5137.959,11.07593,11.07593,0,0,1-1.8003.7442,12.96618,12.96618,0,0,1-1.9199.5009,11.27813,11.27813,0,0,1-1.8677.17581,9.5692,9.5692,0,0,1-4.0971-.89351,10.94641,10.94641,0,0,1-3.3404-2.4209,11.74258,11.74258,0,0,1-2.2329-3.6241,12.24772,12.24772,0,0,1,0-8.8994,11.40141,11.40141,0,0,1,2.2329-3.6113,10.8827,10.8827,0,0,1,3.3404-2.4629,9.62387,9.62387,0,0,1,4.0971-.8916,9.16852,9.16852,0,0,1,3.84281.8242,10.55846,10.55846,0,0,1,3.17779,2.2461,10.45935,10.45935,0,0,1,2.9331,7.4268v.5117a2.20661,2.20661,0,0,1-.21289,1.0684,1.65362,1.65362,0,0,1-.63821.623,2.10248,2.10248,0,0,1-.90479.2978,9.78581,9.78581,0,0,1-1.124.0665H457.11279a7.43474,7.43474,0,0,0,.7974,2.4492,6.99711,6.99711,0,0,0,1.4619,1.8926,6.91464,6.91464,0,0,0,1.9751,1.2451,6.47025,6.47025,0,0,0,2.351.4326m6.1827-9.3057a8.00833,8.00833,0,0,0-.8121-2.3398,7.56527,7.56527,0,0,0-1.4331-1.9209,6.88585,6.88585,0,0,0-1.8808-1.3115,5.18,5.18,0,0,0-4.3281,0,6.48131,6.48131,0,0,0-1.8389,1.3115,7.89556,7.89556,0,0,0-1.41989,1.9209,8.63616,8.63616,0,0,0-.89411,2.3398Z" transform="translate(1.65088 0.9263)"/><path class="cls-68" d="M531.665,178.4004a9.89508,9.89508,0,0,0,1.23049-.082,8.22057,8.22057,0,0,0,1.2861-.2959,8.75669,8.75669,0,0,0,1.2305-.4883,4.14826,4.14826,0,0,0,.9883-.7569,3.26116,3.26116,0,0,1,.5947-.3642,1.6675,1.6675,0,0,1,.6231-.1768.99979.99979,0,0,1,.458.1084.54965.54965,0,0,1,.3242.2578l.9219,1.5293a1.13924,1.13924,0,0,1,.1875.5118.993.993,0,0,1-.2432.6386,3.23566,3.23566,0,0,1-.5.458,9.83128,9.83128,0,0,1-1.502.959,11.67564,11.67564,0,0,1-1.8115.7442,13.03124,13.03124,0,0,1-1.9199.5009,11.31876,11.31876,0,0,1-1.86819.17581,9.512,9.512,0,0,1-4.09661-.89351,10.77665,10.77665,0,0,1-3.3418-2.4209,11.98179,11.98179,0,0,1-3.0567-8.0743,11.90519,11.90519,0,0,1,.8252-4.4492,11.42291,11.42291,0,0,1,2.2315-3.6113,10.71516,10.71516,0,0,1,3.3418-2.4629,9.56605,9.56605,0,0,1,4.09661-.8916,9.12654,9.12654,0,0,1,3.84279.8242,10.38923,10.38923,0,0,1,3.1777,2.2461,10.84223,10.84223,0,0,1,2.1504,3.3272,10.4377,10.4377,0,0,1,.7832,4.0996v.5117a2.211,2.211,0,0,1-.2148,1.0684,1.82525,1.82525,0,0,1-.6221.623,2.3102,2.3102,0,0,1-.9189.2978,9.78473,9.78473,0,0,1-1.1221.0665h-13.6641a7.51877,7.51877,0,0,0,.79891,2.4492,6.76343,6.76343,0,0,0,1.46089,1.8926,7.14745,7.14745,0,0,0,1.9756,1.2451,6.48577,6.48577,0,0,0,2.35251.4326m6.18169-9.3057a7.96081,7.96081,0,0,0-2.2451-4.2607,6.83958,6.83958,0,0,0-1.8799-1.3115,5.18,5.18,0,0,0-4.3281,0,6.4717,6.4717,0,0,0-1.8399,1.3115,8.27135,8.27135,0,0,0-1.4336,1.9209,9.57634,9.57634,0,0,0-.8926,2.3398Z" transform="translate(1.65088 0.9263)"/><path class="cls-68" d="M494.71289,178.4004a12.08613,12.08613,0,0,1-1.1211,1.4082,6.60172,6.60172,0,0,1-1.4092,1.1631,6.75625,6.75625,0,0,1-1.80959.7969,9.13432,9.13432,0,0,1-2.36711.28608,10.40061,10.40061,0,0,1-4.3018-.88188,10.07085,10.07085,0,0,1-3.3672-2.4209,10.93621,10.93621,0,0,1-2.2051-3.5839,12.2864,12.2864,0,0,1-.7851-4.4229,12.60032,12.60032,0,0,1,.771-4.4238,10.89073,10.89073,0,0,1,2.1904-3.5967,10.45671,10.45671,0,0,1,3.3696-2.4336,10.28827,10.28827,0,0,1,4.3282-.8808,8.931,8.931,0,0,1,2.3789.2978,7.47143,7.47143,0,0,1,1.8408.8379,5.89744,5.89744,0,0,1,1.3916,1.1787,16.87635,16.87635,0,0,1,1.0957,1.3643l.16211-2.6368a1.559,1.559,0,0,1,.25779-.8378.942.942,0,0,1,.8125-.2979h1.2842a1.23018,1.23018,0,0,1,.8242.2979,1.06307,1.06307,0,0,1,.3526.8378v20.7344a.88047.88047,0,0,1-.3379.7305,1.43948,1.43948,0,0,1-.8389.2578h-1.4336a1.00966,1.00966,0,0,1-.8262-.3125,1.30477,1.30477,0,0,1-.2568-.8252Zm-13.6611-7.6553a8.81822,8.81822,0,0,0,.48821,2.961,7.35555,7.35555,0,0,0,1.40679,2.4101,6.709,6.709,0,0,0,2.1889,1.6094,7.16957,7.16957,0,0,0,5.711.0263,6.26193,6.26193,0,0,0,2.1074-1.5693,7.324,7.324,0,0,0,1.3135-2.3808,10.27035,10.27035,0,0,0,.0137-5.9375,7.0407,7.0407,0,0,0-1.2872-2.4483,6.32082,6.32082,0,0,0-2.122-1.6777,6.5229,6.5229,0,0,0-2.8662-.6221,6.63936,6.63936,0,0,0-2.8941.6221,6.46665,6.46665,0,0,0-2.1919,1.6377,7.21946,7.21946,0,0,0-1.394,2.4218,9.217,9.217,0,0,0-.4741,2.9473" transform="translate(1.65088 0.9263)"/><path class="cls-68" d="M515.71879,182.13379c-.1211.01269-.2295.02636-.3506.041H515.002a12.95362,12.95362,0,0,1-2.05381-.1611,3.936,3.936,0,0,1-1.7753-.7051,3.88426,3.88426,0,0,1-1.2295-1.6094,7.49534,7.49534,0,0,1-.4463-2.8398v-13.958h-2.6924a1.46285,1.46285,0,0,1-.8115-.1905.87625.87625,0,0,1-.28319-.7705v-1.6631c0-.3935.09469-.6367.28319-.7441a1.46426,1.46426,0,0,1,.8115-.1768h2.6924v-5.1943a.77436.77436,0,0,1,.1758-.5674,1.23919,1.23919,0,0,1,.5673-.2978L512.5,152.959a.70432.70432,0,0,1,.71679.3652,2.22378,2.22378,0,0,1,.1484.8115v5.2207h3.2744a1.13175,1.13175,0,0,1,.7432.2168,1.06331,1.06331,0,0,1,.2568.8106v1.4473c0,.7177-.3378,1.0703-1,1.0703h-3.2744v12.5361a11.43424,11.43424,0,0,0,.1084,1.7451,1.92632,1.92632,0,0,0,.3916.9199,1.34879,1.34879,0,0,0,.71781.3653c.31149.04.66309.0683,1.11039.082a1.14857,1.14857,0,0,1,.8242.2852,1.029,1.029,0,0,1,.3242.8232v1.3926a.98081.98081,0,0,1-.3105.7861,1.47983,1.47983,0,0,1-.8125.29689" transform="translate(1.65088 0.9263)"/><path class="cls-68" d="M562.748,182.13379c-.122.01269-.22941.02636-.35151.041h-.3526a13.00989,13.00989,0,0,1-2.0683-.1611,3.9835,3.9835,0,0,1-1.7735-.7051,3.74707,3.74707,0,0,1-1.2177-1.6094,7.195,7.195,0,0,1-.459-2.8398v-13.958h-2.7051a1.49521,1.49521,0,0,1-.8115-.1905.91015.91015,0,0,1-.2715-.7705v-1.6631c0-.3935.09571-.6367.2715-.7441a1.49506,1.49506,0,0,1,.8115-.1768h2.7051v-5.1943a.83912.83912,0,0,1,.1758-.5674,1.1706,1.1706,0,0,1,.581-.2978l2.2451-.3379c.3672,0,.6094.1221.7041.3652a1.98974,1.98974,0,0,1,.1631.8115v5.2207H563.668a1.19844,1.19844,0,0,1,.75679.2168,1.18639,1.18639,0,0,1,.24321.8106v1.4473c0,.7177-.33891,1.0703-1,1.0703h-3.27351v12.5361a9.92635,9.92635,0,0,0,.10651,1.7451,1.93554,1.93554,0,0,0,.39349.9199,1.25423,1.25423,0,0,0,.7159.3653c.2978.04.6777.0683,1.1103.082a1.20947,1.20947,0,0,1,.8398.2852,1.06494,1.06494,0,0,1,.295.8232v1.3926a.97643.97643,0,0,1-.295.7861,1.48222,1.48222,0,0,1-.81249.29689" transform="translate(1.65088 0.9263)"/><path class="cls-68" d="M773.89648,182.13379c-.124.01269-.2442.02636-.3672.041h-.3506a13.0632,13.0632,0,0,1-2.0703-.1611,4.05466,4.05466,0,0,1-1.7715-.7051,3.845,3.845,0,0,1-1.2158-1.6094,7.4136,7.4136,0,0,1-.459-2.8398v-13.958h-2.6933a1.49636,1.49636,0,0,1-.8125-.1905.8716.8716,0,0,1-.2715-.7705v-1.6631c0-.3935.082-.6367.2715-.7441a1.49635,1.49635,0,0,1,.8125-.1768h2.6933v-5.1943a.84365.84365,0,0,1,.17292-.5674,1.32671,1.32671,0,0,1,.583-.2978l2.24508-.3379a.68767.68767,0,0,1,.7148.3652,2.20339,2.20339,0,0,1,.1514.8115v5.2207h3.2725a1.17661,1.17661,0,0,1,.7578.2168,1.12068,1.12068,0,0,1,.2422.8106v1.4473c0,.7177-.3252,1.0703-1,1.0703h-3.2725v12.5361a11.32923,11.32923,0,0,0,.1074,1.7451,1.91132,1.91132,0,0,0,.40632.9199,1.29854,1.29854,0,0,0,.71478.3653,10.99785,10.99785,0,0,0,1.1094.082,1.16541,1.16541,0,0,1,.8252.2852,1.062,1.062,0,0,1,.3115.8232v1.3926a.9314.9314,0,0,1-.3115.7861,1.385,1.385,0,0,1-.7959.29689" transform="translate(1.65088 0.9263)"/><path class="cls-68" d="M869.18258,182.13379c-.1347.01269-.2431.02636-.3662.041h-.3516a13.016,13.016,0,0,1-2.0673-.1611,3.97917,3.97917,0,0,1-1.77148-.7051,3.84843,3.84843,0,0,1-1.23152-1.6094,7.47962,7.47962,0,0,1-.4453-2.8398v-13.958h-2.706a1.4782,1.4782,0,0,1-.7989-.1905.87652.87652,0,0,1-.2832-.7705v-1.6631c0-.3935.0948-.6367.2832-.7441a1.47631,1.47631,0,0,1,.7989-.1768h2.706v-5.1943a.83384.83384,0,0,1,.17482-.5674,1.227,1.227,0,0,1,.58008-.2978l2.2334-.3379a.71089.71089,0,0,1,.72952.3652,2.2035,2.2035,0,0,1,.14838.8115v5.2207h3.2744a1.17168,1.17168,0,0,1,.7569.2168,1.18626,1.18626,0,0,1,.2441.8106v1.4473c0,.7177-.33878,1.0703-1.001,1.0703h-3.2744v12.5361a11.04657,11.04657,0,0,0,.1094,1.7451,1.811,1.811,0,0,0,.3916.9199,1.30413,1.30413,0,0,0,.7178.3653c.3105.04.67582.0683,1.1084.082a1.19976,1.19976,0,0,1,.8379.2852,1.06551,1.06551,0,0,1,.31152.8232v1.3926a.97813.97813,0,0,1-.31152.7861,1.42188,1.42188,0,0,1-.7979.29689" transform="translate(1.65088 0.9263)"/><path class="cls-68" d="M568.18359,170.7314a11.1854,11.1854,0,0,1,.8935-4.4502,11.464,11.464,0,0,1,2.4356-3.6386,11.81812,11.81812,0,0,1,3.624-2.4473,10.78974,10.78974,0,0,1,4.4365-.9072,11.001,11.001,0,0,1,4.4512.9072,11.72571,11.72571,0,0,1,3.6367,2.4473,11.24013,11.24013,0,0,1,2.4473,3.6386,11.36866,11.36866,0,0,1,0,8.9004,11.16667,11.16667,0,0,1-2.4473,3.6241,11.5027,11.5027,0,0,1-3.6367,2.4502,11.27425,11.27425,0,0,1-4.4512.89058,11.056,11.056,0,0,1-4.4365-.89058,11.59068,11.59068,0,0,1-3.624-2.4502,11.38819,11.38819,0,0,1-2.4356-3.6241,11.137,11.137,0,0,1-.8935-4.4502m3.6123,0a7.66418,7.66418,0,0,0,.6084,3.0293,8.10261,8.10261,0,0,0,4.166,4.1661,7.25675,7.25675,0,0,0,3.0029.6367,7.44211,7.44211,0,0,0,3.0313-.6367,7.73425,7.73425,0,0,0,2.501-1.6905,7.93973,7.93973,0,0,0,1.705-2.4756,7.70017,7.70017,0,0,0,0-6.0595,8.10466,8.10466,0,0,0-1.705-2.502,7.92117,7.92117,0,0,0-2.501-1.6894,7.40956,7.40956,0,0,0-3.0313-.6368,7.22528,7.22528,0,0,0-3.0029.6368,7.84811,7.84811,0,0,0-4.7744,7.2216" transform="translate(1.65088 0.9263)"/><path class="cls-68" d="M599.59078,162.7383a14.1137,14.1137,0,0,1,1.001-1.2168,7.08292,7.08292,0,0,1,1.1904-1.084,6.23507,6.23507,0,0,1,1.4873-.7432,5.45591,5.45591,0,0,1,1.8672-.2841,8.092,8.092,0,0,1,2.461.3515,8.81077,8.81077,0,0,1,2.0566,1.002,8.51487,8.51487,0,0,1,2.8525,3.1787,12.11692,12.11692,0,0,1,1.1641-1.8272,8.20481,8.20481,0,0,1,1.501-1.4736,7.0429,7.0429,0,0,1,1.8808-.9736,6.92773,6.92773,0,0,1,2.2578-.3516,7.76064,7.76064,0,0,1,3.4366.7432,8.12025,8.12025,0,0,1,2.6513,2.0156,9.48112,9.48112,0,0,1,1.7032,2.9346,10.429,10.429,0,0,1,.5947,3.5166v12.4707a1.05536,1.05536,0,0,1-.3115.8515,1.09045,1.09045,0,0,1-.7979.29788h-1.581q-1.1778,0-1.1778-1.09568V168.459a6.51872,6.51872,0,0,0-.3242-2.083,5.11425,5.11425,0,0,0-.91888-1.6905,4.33019,4.33019,0,0,0-3.42292-1.5693,5.29514,5.29514,0,0,0-2.0547.4063,5.55582,5.55582,0,0,0-1.7597,1.1357,5.27475,5.27475,0,0,0-1.6905,3.8682v12.4707c0,.7715-.36418,1.14938-1.082,1.14938H610.79a.913.913,0,0,1-.75782-.26958,1.28206,1.28206,0,0,1-.2148-.8261V168.459a5.92575,5.92575,0,0,0-.3779-2.083,5.46458,5.46458,0,0,0-1.0567-1.6905,5.25374,5.25374,0,0,0-1.6084-1.1494,4.72645,4.72645,0,0,0-2.0166-.4199,4.99991,4.99991,0,0,0-2.0019.4063,5.09807,5.09807,0,0,0-1.6504,1.1357,5.44542,5.44542,0,0,0-1.0948,1.6914,5.32337,5.32337,0,0,0-.4199,2.0547v12.7695a.91045.91045,0,0,1-.25678.7168,1.02541,1.02541,0,0,1-.71682.25588h-1.8389c-.6767,0-1.02828-.33788-1.02828-.97268V160.2764a.93278.93278,0,0,1,.28418-.7168.98313.98313,0,0,1,.71582-.2715h1.67678a.97535.97535,0,0,1,.7314.2715,1.19838,1.19838,0,0,1,.2852.7168Z" transform="translate(1.65088 0.9263)"/><path class="cls-68" d="M632.48438,170.7314a11.46485,11.46485,0,0,1,3.3271-8.0888,11.77631,11.77631,0,0,1,3.6123-2.4473,11.39734,11.39734,0,0,1,8.9121,0,11.81522,11.81522,0,0,1,3.626,2.4473,11.429,11.429,0,0,1,2.4473,3.6386,11.36866,11.36866,0,0,1,0,8.9004,11.35384,11.35384,0,0,1-2.4473,3.6241,11.588,11.588,0,0,1-3.626,2.4502,11.59326,11.59326,0,0,1-8.9121,0,11.54977,11.54977,0,0,1-3.6123-2.4502,11.39629,11.39629,0,0,1-3.3271-8.0743m3.6123,0a7.86931,7.86931,0,0,0,4.7744,7.1954,7.46211,7.46211,0,0,0,6.0322,0,7.93428,7.93428,0,0,0,2.5156-1.6905,8.06668,8.06668,0,0,0,1.6905-2.4756,7.67858,7.67858,0,0,0,0-6.0595,8.23658,8.23658,0,0,0-1.6905-2.502,8.13022,8.13022,0,0,0-2.5156-1.6894,7.461,7.461,0,0,0-6.0322,0,7.88472,7.88472,0,0,0-4.166,4.1914,7.62037,7.62037,0,0,0-.6084,3.0302" transform="translate(1.65088 0.9263)"/><path class="cls-68" d="M663.94628,162.2666a7.93294,7.93294,0,0,1,.7031-1.0293,5.49443,5.49443,0,0,1,1.0547-.9609,6.23268,6.23268,0,0,1,1.41992-.7032,5.554,5.554,0,0,1,1.85348-.2851,5.05959,5.05959,0,0,1,1.8789.3525,5.755,5.755,0,0,1,1.47562.7852c.40528.2959.60748.5537.60748.7695a.561.561,0,0,1-.0401.2041.25648.25648,0,0,1-.082.1475l-1.10938,2.0556a.65985.65985,0,0,1-.30962.3662.78667.78667,0,0,1-.3261.0684,1.549,1.549,0,0,1-.2832-.0947.71756.71756,0,0,1-.16208-.0957,5.73417,5.73417,0,0,0-1.02842-.4864,4.35711,4.35711,0,0,0-1.1494-.2431,3.35621,3.35621,0,0,0-1.8388.542,4.97012,4.97012,0,0,0-1.42,1.3662,6.23715,6.23715,0,0,0-.9209,1.8779,6.88953,6.88953,0,0,0-.3232,2.0576v12.2119a.86652.86652,0,0,1-.9746.97368h-1.8379c-.6914,0-1.0293-.33788-1.0293-.97368V160.3574a.906.906,0,0,1,.2842-.7031.945.945,0,0,1,.6894-.2705h1.625a.97214.97214,0,0,1,.75492.2842,1.02609,1.02609,0,0,1,.27148.6894Z" transform="translate(1.65088 0.9263)"/><path class="cls-68" d="M682.82708,162.2666a8.0492,8.0492,0,0,1,.7042-1.0293,6.48554,6.48554,0,0,1,1.0546-.9609,6.23333,6.23333,0,0,1,1.42-.7032,5.61519,5.61519,0,0,1,1.8535-.2851,5.182,5.182,0,0,1,1.89262.3525,5.63685,5.63685,0,0,1,1.45988.7852c.4063.2959.6094.5537.6094.7695a.56293.56293,0,0,1-.04.2041.38557.38557,0,0,1-.0674.1475l-1.1094,2.0556a.72932.72932,0,0,1-.3242.3662.77866.77866,0,0,1-.3262.0684,1.51762,1.51762,0,0,1-.2822-.0947,1.12974,1.12974,0,0,1-.1631-.0957,5.77645,5.77645,0,0,0-1.0264-.4864,4.27471,4.27471,0,0,0-1.1513-.2431,3.35409,3.35409,0,0,0-1.8389.542,4.99873,4.99873,0,0,0-1.4209,1.3662,6.56949,6.56949,0,0,0-.90628,1.8779,6.915,6.915,0,0,0-.33792,2.0576v12.2119a.86617.86617,0,0,1-.9736.97368h-1.8389c-.6777,0-1.0292-.33788-1.0292-.97368V160.3574a.87468.87468,0,0,1,.2978-.7031.91591.91591,0,0,1,.67582-.2705h1.623a.9556.9556,0,0,1,.75778.2842,1.03087,1.03087,0,0,1,.2715.6894Z" transform="translate(1.65088 0.9263)"/><path class="cls-68" d="M932.23928,162.2666a6.00081,6.00081,0,0,1,.7031-1.0293,5.87025,5.87025,0,0,1,1.042-.9609,6.27189,6.27189,0,0,1,1.4199-.7032,5.638,5.638,0,0,1,1.8672-.2851,5.24376,5.24376,0,0,1,1.8926.3525,5.90933,5.90933,0,0,1,1.46192.7852c.40528.2959.59368.5537.59368.7695a1.04651,1.04651,0,0,1-.0263.2041.67.67,0,0,1-.0821.1475l-1.10928,2.0556a.72213.72213,0,0,1-.30962.3662.80235.80235,0,0,1-.3379.0684,1.776,1.776,0,0,1-.27148-.0947.69715.69715,0,0,1-.16212-.0957,6.29492,6.29492,0,0,0-1.0283-.4864,4.45432,4.45432,0,0,0-1.1631-.2431,3.34509,3.34509,0,0,0-1.8252.542,5.01689,5.01689,0,0,0-1.4336,1.3662,6.5197,6.5197,0,0,0-.9072,1.8779,6.89127,6.89127,0,0,0-.3242,2.0576v12.2119a.86587.86587,0,0,1-.9737.97368h-1.8535a.89356.89356,0,0,1-1.0264-.97368V160.3574a.86792.86792,0,0,1,.2969-.7031.91986.91986,0,0,1,.6895-.2705h1.622a.94661.94661,0,0,1,.7452.2842,1.04514,1.04514,0,0,1,.2841.6894Z" transform="translate(1.65088 0.9263)"/><path class="cls-68" d="M695.35158,170.7314a11.45358,11.45358,0,0,1,3.3271-8.0888,11.73542,11.73542,0,0,1,3.61332-2.4473,10.84577,10.84577,0,0,1,4.44918-.9072,10.98107,10.98107,0,0,1,4.4483.9072,11.88619,11.88619,0,0,1,3.6386,2.4473,11.67844,11.67844,0,0,1,2.4483,3.6386,11.54108,11.54108,0,0,1,0,8.9004,11.47644,11.47644,0,0,1-6.0869,6.0743,11.25376,11.25376,0,0,1-4.4483.89058,11.11359,11.11359,0,0,1-4.44918-.89058,11.51054,11.51054,0,0,1-3.61332-2.4502,11.38514,11.38514,0,0,1-3.3271-8.0743m3.5976,0a7.712,7.712,0,0,0,.6231,3.0293,8.00246,8.00246,0,0,0,4.1523,4.1661,7.49219,7.49219,0,0,0,6.0449,0,7.87,7.87,0,0,0,2.503-1.6905,7.66,7.66,0,0,0,1.6894-2.4756,7.68856,7.68856,0,0,0,0-6.0595,7.81725,7.81725,0,0,0-1.6894-2.502,8.06376,8.06376,0,0,0-2.503-1.6894,7.49112,7.49112,0,0,0-6.0449,0,7.92237,7.92237,0,0,0-4.1523,4.1914,7.66677,7.66677,0,0,0-.6231,3.0302" transform="translate(1.65088 0.9263)"/><path class="cls-68" d="M724.51168,160.2217c.4619,1.2041.9346,2.4492,1.4619,3.7607.5157,1.3252,1.041,2.6367,1.5557,3.9483.5283,1.2998,1.0283,2.5849,1.5283,3.8144.5,1.2461.9463,2.3809,1.3809,3.4229.5664-1.4327,1.2031-2.9883,1.8779-4.6797.6758-1.6914,1.3818-3.4229,2.09862-5.2207l1.97458-5.0713a1.54485,1.54485,0,0,1,.4463-.6221,1.14725,1.14725,0,0,1,.7579-.2441h1.8925a1.148,1.148,0,0,1,.7285.2041.64472.64472,0,0,1,.2579.5654.94687.94687,0,0,1-.0401.3125.63935.63935,0,0,1-.0664.2295c-.2978.7158-.5967,1.4473-.8945,2.1768-.3086.7314-.6074,1.4628-.9199,2.1914.40622,1.082.8398,2.165,1.2578,3.247.4336,1.0948.8545,2.1368,1.2715,3.1368l1.5556,3.8027c.4356-1.0401.8955-2.1787,1.3809-3.4375.4853-1.2432.9853-2.5283,1.5156-3.8281.5117-1.3116,1.04-2.6368,1.5547-3.9483.5137-1.3232,1.0137-2.583,1.4863-3.7861a1.46427,1.46427,0,0,1,.4619-.6221,1.23373,1.23373,0,0,1,.7705-.2441h1.8653a1.19048,1.19048,0,0,1,.7578.2041.607.607,0,0,1,.2842.5654.76417.76417,0,0,1-.0664.3125.73949.73949,0,0,1-.0547.2295l-8.1436,20.626c0-.0117-.0263.0283-.0537.1211a3.07236,3.07236,0,0,1-.2041.2998,1.34281,1.34281,0,0,1-.3486.3095,1.0298,1.0298,0,0,1-.5567.14848h-1.2968a.95584.95584,0,0,1-.7989-.32328,2.46665,2.46665,0,0,1-.3242-.5273l-4.3154-11.376L732.249,181.2676c-.01172.041-.04.0957-.06642.1758a.94438.94438,0,0,1-.1484.2714.95828.95828,0,0,1-.2969.2696,1.10242,1.10242,0,0,1-.5146.10935l-.05568.05273h-1.36522a1.09579,1.09579,0,0,1-.4864-.09277,1.30981,1.30981,0,0,1-.3398-.21681.95415.95415,0,0,1-.2002-.2861,1.67684,1.67684,0,0,1-.1231-.2549l-8.1162-20.6543a.6027.6027,0,0,1-.0547-.1484,2.17143,2.17143,0,0,1-.0537-.4336q0-.7281.9756-.7295h1.8662a1.13081,1.13081,0,0,1,.7422.2441,1.94668,1.94668,0,0,1,.5.6475" transform="translate(1.65088 0.9263)"/><path class="cls-68" d="M779.332,170.7314a11.20208,11.20208,0,0,1,.89258-4.4502,11.44407,11.44407,0,0,1,2.4356-3.6386,11.889,11.889,0,0,1,3.6113-2.4473,11.3662,11.3662,0,0,1,8.8994,0,11.43386,11.43386,0,0,1,6.0879,6.0859,11.39062,11.39062,0,0,1,0,8.9004,11.49088,11.49088,0,0,1-6.0879,6.0743,11.56155,11.56155,0,0,1-8.8994,0,11.65794,11.65794,0,0,1-3.6113-2.4502,11.36849,11.36849,0,0,1-2.4356-3.6241,11.15362,11.15362,0,0,1-.89258-4.4502m3.61138,0a7.89925,7.89925,0,0,0,4.7597,7.1954,7.50174,7.50174,0,0,0,6.04892,0,8.10169,8.10169,0,0,0,4.205-4.1661,7.67768,7.67768,0,0,0,0-6.0595,8.019,8.019,0,0,0-4.205-4.1914,7.50066,7.50066,0,0,0-6.04892,0,7.92837,7.92837,0,0,0-4.1504,4.1914,7.62277,7.62277,0,0,0-.6093,3.0302" transform="translate(1.65088 0.9263)"/><path class="cls-68" d="M844.40428,178.4004a9.81981,9.81981,0,0,0,1.2441-.082,8.24992,8.24992,0,0,0,1.2862-.2959,8.3476,8.3476,0,0,0,1.2021-.4883,3.80287,3.80287,0,0,0,1.0156-.7569,2.62855,2.62855,0,0,1,.5938-.3642,1.60658,1.60658,0,0,1,.624-.1768,1.05078,1.05078,0,0,1,.459.1084.55835.55835,0,0,1,.3242.2578l.9072,1.5293a1.209,1.209,0,0,1,.2032.5118.99847.99847,0,0,1-.2432.6386,3.36785,3.36785,0,0,1-.5146.458,9.98206,9.98206,0,0,1-1.502.959,11.6172,11.6172,0,0,1-1.7988.7442,13.14381,13.14381,0,0,1-1.9336.5009,11.30693,11.30693,0,0,1-1.8672.17581,9.52092,9.52092,0,0,1-4.0859-.89351,10.61508,10.61508,0,0,1-3.3379-2.4209,12.03571,12.03571,0,0,1-2.2481-3.6241,12.43774,12.43774,0,0,1,0-8.8994,11.6783,11.6783,0,0,1,2.2481-3.6113,10.55591,10.55591,0,0,1,3.3379-2.4629,9.5753,9.5753,0,0,1,4.0859-.8916,9.073,9.073,0,0,1,3.8408.8242,10.243,10.243,0,0,1,3.1787,2.2461,10.8471,10.8471,0,0,1,2.1651,3.3272,10.72642,10.72642,0,0,1,.7832,4.0996v.5117a2.202,2.202,0,0,1-.2285,1.0684,1.84278,1.84278,0,0,1-.6221.623,2.194,2.194,0,0,1-.9209.2978,9.66556,9.66556,0,0,1-1.1094.0665h-13.6738a7.75525,7.75525,0,0,0,.7978,2.4492,6.96639,6.96639,0,0,0,1.461,1.8926,7.32363,7.32363,0,0,0,1.9756,1.2451,6.52771,6.52771,0,0,0,2.3525.4326m6.17972-9.3057a7.84466,7.84466,0,0,0-2.22852-4.2607,6.98725,6.98725,0,0,0-1.89548-1.3115,5.14653,5.14653,0,0,0-2.16512-.4737,5.06813,5.06813,0,0,0-2.1484.4737,6.3658,6.3658,0,0,0-1.85448,1.3115,8.30633,8.30633,0,0,0-1.419,1.9209,9.70324,9.70324,0,0,0-.89452,2.3398Z" transform="translate(1.65088 0.9263)"/><path class="cls-68" d="M877.13478,149.5644a1.04951,1.04951,0,0,1,.2578-.7158.99616.99616,0,0,1,.7441-.2715h1.8262a1.01572,1.01572,0,0,1,.7168.2715.87131.87131,0,0,1,.2978.7158v12.7803a14.35522,14.35522,0,0,1,1.0811-1.1347,7.953,7.953,0,0,1,1.3008-.9483,6.15978,6.15978,0,0,1,1.5263-.6474,6.02869,6.02869,0,0,1,1.8125-.2579,8.80537,8.80537,0,0,1,3.80082.7979,8.31021,8.31021,0,0,1,2.88088,2.1523,9.73272,9.73272,0,0,1,1.8135,3.1914,11.88135,11.88135,0,0,1,.6347,3.9092v11.7793a.90317.90317,0,0,1-.2968.7442,1.08121,1.08121,0,0,1-.7305.2441h-1.8115a1.11492,1.11492,0,0,1-.7608-.2168.89763.89763,0,0,1-.2812-.7715V168.5537a5.22785,5.22785,0,0,0-.4327-2.1357,5.50661,5.50661,0,0,0-1.164-1.7041,5.57237,5.57237,0,0,0-1.7451-1.1377,5.45756,5.45756,0,0,0-2.083-.4053,5.31518,5.31518,0,0,0-2.043.4053,5.78655,5.78655,0,0,0-1.7422,1.123,5.99275,5.99275,0,0,0-1.2187,1.6777,5.62112,5.62112,0,0,0-.5411,2.0557v12.7539a.8653.8653,0,0,1-.9736.9883h-1.8672a.88063.88063,0,0,1-1.0019-.9883Z" transform="translate(1.65088 0.9263)"/><path class="cls-68" d="M912.38378,178.4004a9.95845,9.95845,0,0,0,1.2314-.082,8.50491,8.50491,0,0,0,2.501-.7842,3.61483,3.61483,0,0,0,.9873-.7569,4.19219,4.19219,0,0,1,.6094-.3642,1.60715,1.60715,0,0,1,.623-.1768,1.09491,1.09491,0,0,1,.459.1084.58951.58951,0,0,1,.3242.2578l.9073,1.5293a1.21673,1.21673,0,0,1,.2021.5118.99961.99961,0,0,1-.2441.6386,3.358,3.358,0,0,1-.5137.458,9.77545,9.77545,0,0,1-1.501.959,11.50368,11.50368,0,0,1-1.7998.7442,13.50186,13.50186,0,0,1-1.91788.5009,11.60774,11.60774,0,0,1-1.86822.17581,9.52688,9.52688,0,0,1-4.0986-.89351,10.62791,10.62791,0,0,1-3.3409-2.4209,12.40277,12.40277,0,0,1-2.2588-3.6241,11.98677,11.98677,0,0,1,2.2588-12.5107,10.56843,10.56843,0,0,1,3.3409-2.4629,9.5811,9.5811,0,0,1,4.0986-.8916,9.06382,9.06382,0,0,1,3.8281.8242,10.40541,10.40541,0,0,1,3.1787,2.2461,10.57363,10.57363,0,0,1,2.9473,7.4268v.5117a2.17848,2.17848,0,0,1-.2305,1.0684,1.70378,1.70378,0,0,1-.6211.623,2.17926,2.17926,0,0,1-.9062.2978,9.9218,9.9218,0,0,1-1.12208.0665H905.78218a7.75892,7.75892,0,0,0,.80082,2.4492,6.7231,6.7231,0,0,0,3.44728,3.1377,6.441,6.441,0,0,0,2.3535.4326m6.1816-9.3057a7.6846,7.6846,0,0,0-.8261-2.3398,7.26253,7.26253,0,0,0-1.4336-1.9209,6.84987,6.84987,0,0,0-1.8789-1.3115,5.19261,5.19261,0,0,0-2.1651-.4737,5.08706,5.08706,0,0,0-2.1504.4737,6.54853,6.54853,0,0,0-1.8535,1.3115,7.96105,7.96105,0,0,0-1.4199,1.9209,9.086,9.086,0,0,0-.8916,2.3398Z" transform="translate(1.65088 0.9263)"/><path class="cls-68" d="M823.94038,178.292a9.56313,9.56313,0,0,1-1.23038,1.3662,12.10323,12.10323,0,0,1-1.583,1.2334,8.98154,8.98154,0,0,1-1.81352.877,6.33778,6.33778,0,0,1-2.001.32515,9.49287,9.49287,0,0,1-4.165-.89255,9.74428,9.74428,0,0,1-3.2871-2.4346,10.79973,10.79973,0,0,1-2.1368-3.6133,12.72491,12.72491,0,0,1,.02642-8.8721,11.30254,11.30254,0,0,1,2.20608-3.6103,10.5157,10.5157,0,0,1,3.2851-2.4199,9.39985,9.39985,0,0,1,4.0713-.8946,8.23627,8.23627,0,0,1,2.124.2696,7.76891,7.76891,0,0,1,1.8242.7314,7.59636,7.59636,0,0,1,1.503,1.0967,9.65206,9.65206,0,0,1,1.1767,1.3115v-2.2734a1.04655,1.04655,0,0,1,1.2041-1.1358h1.4473a1.38432,1.38432,0,0,1,.8916.2979,1.03662,1.03662,0,0,1,.3662.8379v19.0039a13.34582,13.34582,0,0,1-.8262,4.9248,9.63249,9.63249,0,0,1-2.2588,3.501,9.363,9.363,0,0,1-3.4091,2.09766,12.8603,12.8603,0,0,1-4.2598.68945,12.07455,12.07455,0,0,1-3.3682-.41992,11.03616,11.03616,0,0,1-2.7714-1.24316h.0127a2.24076,2.24076,0,0,1-.418-.29786.4304.4304,0,0,1-.1094-.31054.49877.49877,0,0,1,.0967-.27149,2.0338,2.0338,0,0,1,.1055-.21484l1.2431-2.11231a.60272.60272,0,0,1,.2324-.21484.74744.74744,0,0,1,.4053-.083.9816.9816,0,0,1,.2578.05567c.0811.043.1612.083.2422.12207a8.192,8.192,0,0,0,1.9072.96093,6.97812,6.97812,0,0,0,2.1377.35059,7.72681,7.72681,0,0,0,2.4473-.40625,7.37243,7.37243,0,0,0,2.2178-1.2041,6.36643,6.36643,0,0,0,1.5967-1.90625,5.29926,5.29926,0,0,0,.6093-2.55667Zm-13.2138-7.5469a8.50048,8.50048,0,0,0,.5136,2.961,8.40093,8.40093,0,0,0,1.4336,2.4208,6.79023,6.79023,0,0,0,2.1094,1.625,5.53893,5.53893,0,0,0,2.541.6084,5.37854,5.37854,0,0,0,2.4893-.5937,7.1427,7.1427,0,0,0,2.1103-1.5977,7.803,7.803,0,0,0,2.0166-5.289,8.35328,8.35328,0,0,0-.5263-2.9619,7.897,7.897,0,0,0-1.4082-2.4746,6.546,6.546,0,0,0-2.0957-1.7051,5.70417,5.70417,0,0,0-2.586-.6221,5.56538,5.56538,0,0,0-2.541.6221,6.87458,6.87458,0,0,0-2.1094,1.6377,8.40507,8.40507,0,0,0-1.4336,2.4218,8.53184,8.53184,0,0,0-.5136,2.9473" transform="translate(1.65088 0.9263)"/></g></g></svg>